<svg width="42" height="42" viewBox="0 0 42 42" fill="none" xmlns="http://www.w3.org/2000/svg">
<path opacity="0.21" d="M21 0L21.542 0.00683594C32.8893 0.294384 41.9999 9.58325 42 21C42 25.8931 40.3263 30.3956 37.5205 33.9658C33.6758 38.8581 27.7048 42 21 42L20.458 41.9932C13.9737 41.8289 8.21939 38.7261 4.47852 33.9658C1.6729 30.3956 0 25.8929 0 21C0.000124475 9.402 9.40217 0 21 0Z" fill="#4AD991"/>
<path d="M18.7952 28.5001C19.3828 29.0187 20.1547 29.3334 21.0001 29.3334C21.8454 29.3334 22.6173 29.0187 23.2049 28.5001M26.0001 17.6667C26.0001 16.3407 25.4733 15.0689 24.5356 14.1312C23.5979 13.1935 22.3261 12.6667 21.0001 12.6667C19.674 12.6667 18.4022 13.1935 17.4645 14.1312C16.5268 15.0689 16.0001 16.3407 16.0001 17.6667C16.0001 20.2419 15.3504 22.005 14.6248 23.1713C14.0127 24.155 13.7066 24.6468 13.7178 24.784C13.7303 24.936 13.7624 24.9939 13.8849 25.0847C13.9954 25.1667 14.4939 25.1667 15.4908 25.1667H26.5093C27.5062 25.1667 28.0047 25.1667 28.1152 25.0847C28.2377 24.9939 28.2699 24.936 28.2823 24.784C28.2935 24.6468 27.9875 24.155 27.3753 23.1713C26.6497 22.005 26.0001 20.2419 26.0001 17.6667Z" stroke="#4AD991" stroke-width="1.66667" stroke-linecap="round" stroke-linejoin="round"/>
</svg>
