<svg width="61" height="60" viewBox="0 0 61 60" fill="none" xmlns="http://www.w3.org/2000/svg">
  <path opacity="0.3" d="M37.7617 0C50.4641 0.000205242 60.7617 10.2976 60.7617 23V37C60.7617 49.7024 50.4641 59.9998 37.7617 60H23.2695C10.567 60 0.269531 49.7025 0.269531 37V23C0.269531 10.2975 10.567 0 23.2695 0H37.7617Z" fill="#FF9066"/>
  <g transform="translate(20.5, 18.5)">
    <g clip-path="url(#clip0)">
      <path d="M7.14188 1.4375V2.875H12.8562V1.4375C12.8562 0.64373 13.4946 0 14.2847 0C15.0749 0 15.7133 0.64373 15.7133 1.4375V2.875H17.8562C19.0392 2.875 19.999 3.84037 19.999 5.03125V7.1875H-0.000976562V5.03125C-0.000976562 3.84037 0.958398 2.875 2.14188 2.875H4.28474V1.4375C4.28474 0.64373 4.92313 0 5.71331 0C6.50349 0 7.14188 0.64373 7.14188 1.4375ZM-0.000976562 8.625H19.999V20.8438C19.999 22.0342 19.0392 23 17.8562 23H2.14188C0.958398 23 -0.000976562 22.0342 -0.000976562 20.8438V8.625ZM2.85617 13.6562C2.85617 14.0516 3.17581 14.375 3.57045 14.375H4.99902C5.39188 14.375 5.71331 14.0516 5.71331 13.6562V12.2188C5.71331 11.8234 5.39188 11.5 4.99902 11.5H3.57045C3.17581 11.5 2.85617 11.8234 2.85617 12.2188V13.6562ZM8.57045 13.6562C8.57045 14.0516 8.89188 14.375 9.28474 14.375H10.7133C11.1062 14.375 11.4276 14.0516 11.4276 13.6562V12.2188C11.4276 11.8234 11.1062 11.5 10.7133 11.5H9.28474C8.89188 11.5 8.57045 11.8234 8.57045 12.2188V13.6562ZM14.999 11.5C14.6062 11.5 14.2847 11.8234 14.2847 12.2188V13.6562C14.2847 14.0516 14.6062 14.375 14.999 14.375H16.4276C16.8205 14.375 17.1419 14.0516 17.1419 13.6562V12.2188C17.1419 11.8234 16.8205 11.5 16.4276 11.5H14.999ZM2.85617 19.4062C2.85617 19.8016 3.17581 20.125 3.57045 20.125H4.99902C5.39188 20.125 5.71331 19.8016 5.71331 19.4062V17.9688C5.71331 17.5734 5.39188 17.25 4.99902 17.25H3.57045C3.17581 17.25 2.85617 17.5734 2.85617 17.9688V19.4062ZM9.28474 17.25C8.89188 17.25 8.57045 17.5734 8.57045 17.9688V19.4062C8.57045 19.8016 8.89188 20.125 9.28474 20.125H10.7133C11.1062 20.125 11.4276 19.8016 11.4276 19.4062V17.9688C11.4276 17.5734 11.1062 17.25 10.7133 17.25H9.28474ZM14.2847 19.4062C14.2847 19.8016 14.6062 20.125 14.999 20.125H16.4276C16.8205 20.125 17.1419 19.8016 17.1419 19.4062V17.9688C17.1419 17.5734 16.8205 17.25 16.4276 17.25H14.999C14.6062 17.25 14.2847 17.5734 14.2847 17.9688V19.4062Z" fill="#FF9871"/>
    </g>
    <defs>
      <clipPath id="clip0">
        <rect width="20" height="23" fill="white"/>
      </clipPath>
    </defs>
  </g>
</svg>
