<svg width="61" height="60" viewBox="0 0 61 60" fill="none" xmlns="http://www.w3.org/2000/svg">
  <path opacity="0.21" d="M37.7627 0C50.4651 0.000205242 60.7627 10.2976 60.7627 23V37C60.7627 49.7024 50.4651 59.9998 37.7627 60H23.2705C10.568 60 0.270508 49.7025 0.270508 37V23C0.270508 10.2975 10.568 0 23.2705 0H37.7627Z" fill="#FEC53D"/>
  <g transform="translate(19.5, 15)">
    <g clip-path="url(#clip0)">
      <path d="M19.25 0H2.75C1.2312 0 0 1.21818 0 2.71973V27.1885C0 28.1893 0.82099 29.001 1.83333 29.001L8.25 29V24.4693C8.25 22.9677 9.4812 21.75 11 21.75C12.5188 21.75 13.75 22.9677 13.75 24.4693V29L20.1667 29.001C21.179 29.001 22 28.1893 22 27.1885V2.71973C22 1.21793 20.7682 0 19.25 0ZM7.33333 17.218C7.33333 17.7185 6.9229 18.1243 6.41667 18.1243H4.58333C4.0771 18.1243 3.66667 17.7185 3.66667 17.218V15.4056C3.66667 14.905 4.0771 14.4995 4.58333 14.4995H6.41667C6.9229 14.4995 7.33333 14.905 7.33333 15.4056V17.218ZM12.8333 17.218C12.8333 17.7185 12.4229 18.1243 11.9167 18.1243H10.0833C9.5771 18.1243 9.16667 17.7185 9.16667 17.218V15.4056C9.16667 14.905 9.5771 14.4995 10.0833 14.4995H11.9167C12.4229 14.4995 12.8333 14.905 12.8333 15.4056V17.218ZM14.1911 8.69936H12.4678V10.4031C12.4678 10.6633 12.2543 10.8744 11.9911 10.8744H10.0089C9.74566 10.8744 9.53219 10.6633 9.53219 10.4031V8.69936H7.80885C7.54531 8.69936 7.33333 8.4898 7.33333 8.22925V6.26947C7.33333 6.00928 7.54686 5.79823 7.81 5.79823H9.53333V4.09676C9.53333 3.83655 9.74686 3.6255 10.01 3.6255H11.99C12.2532 3.6255 12.4667 3.83661 12.4667 4.09676V5.8005H14.19C14.4547 5.79936 14.6667 6.00893 14.6667 6.26947V8.22797C14.6667 8.4908 14.4547 8.69936 14.1911 8.69936ZM18.3333 17.218C18.3333 17.7185 17.9229 18.1243 17.4167 18.1243H15.5833C15.0771 18.1243 14.6667 17.7185 14.6667 17.218V15.4056C14.6667 14.905 15.0771 14.4995 15.5833 14.4995H17.4167C17.9229 14.4995 18.3333 14.905 18.3333 15.4056V17.218Z" fill="#FEC53D"/>
    </g>
    <defs>
      <clipPath id="clip0">
        <rect width="22" height="29" fill="white"/>
      </clipPath>
    </defs>
  </g>
</svg>
