<svg width="62" height="60" viewBox="0 0 62 60" fill="none" xmlns="http://www.w3.org/2000/svg">
<path opacity="0.21" d="M38.2627 0C50.9651 0.000205242 61.2627 10.2976 61.2627 23V37C61.2627 49.7024 50.9651 59.9998 38.2627 60H23.7705C11.068 60 0.770508 49.7025 0.770508 37V23C0.770508 10.2975 11.068 0 23.7705 0H38.2627Z" fill="#8280FF"/>
<rect opacity="0.01" x="15" y="14" width="32" height="32" fill="#8280FF"/>
<path d="M26.1302 22.5012C26.1302 20.0153 28.309 18 30.9968 18C33.6846 18 35.8634 20.0153 35.8634 22.5012C35.8634 24.679 34.1913 26.4955 31.9697 26.9124V29.3988H36.1849C37.7965 29.3988 39.1031 30.6073 39.1031 32.0979V33.0869C41.3263 33.5027 43 35.32 43 37.4988C43 39.9847 40.8211 42 38.1334 42C35.4456 42 33.2667 39.9847 33.2667 37.4988C33.2667 35.3219 34.9375 33.5059 37.1576 33.088V32.0979C37.1576 31.601 36.7221 31.1982 36.1849 31.1982H25.8091C25.2719 31.1982 24.8364 31.601 24.8364 32.0979V33.0869C27.0595 33.5027 28.7333 35.32 28.7333 37.4988C28.7333 39.9847 26.5544 42 23.8666 42C21.1789 42 19 39.9847 19 37.4988C19 35.3219 20.6707 33.5059 22.8909 33.088V32.0979C22.8909 30.6073 24.1974 29.3988 25.8091 29.3988H30.0243V26.9125C27.8025 26.4957 26.1302 24.6791 26.1302 22.5012Z" fill="#8280FF"/>
</svg>
